<svg width="18" height="18" viewBox="0 0 18 18" fill="none" xmlns="http://www.w3.org/2000/svg">
<path d="M0 0H18V18H0V0ZM4.73 15.04C5.13 15.89 5.92 16.59 7.27 16.59C8.77 16.59 9.8 15.79 9.8 14.04V8.26H8.1V14C8.1 14.86 7.75 15.08 7.2 15.08C6.62 15.08 6.38 14.68 6.11 14.21L4.73 15.04ZM10.71 14.86C11.21 15.84 12.22 16.59 13.8 16.59C15.4 16.59 16.6 15.76 16.6 14.23C16.6 12.82 15.79 12.19 14.35 11.57L13.93 11.39C13.2 11.08 12.89 10.87 12.89 10.37C12.89 9.96 13.2 9.64 13.7 9.64C14.18 9.64 14.5 9.85 14.79 10.37L16.1 9.5C15.55 8.54 14.77 8.17 13.7 8.17C12.19 8.17 11.22 9.13 11.22 10.4C11.22 11.78 12.03 12.43 13.25 12.95L13.67 13.13C14.45 13.47 14.91 13.68 14.91 14.26C14.91 14.74 14.46 15.09 13.76 15.09C12.93 15.09 12.45 14.66 12.09 14.06L10.71 14.86Z" fill="#EABA0F"/>
</svg>
