<svg width="18" height="22" viewBox="0 0 18 22" fill="none" xmlns="http://www.w3.org/2000/svg">
<path d="M9 0.850098C8.73 0.850098 8.45 0.920098 8.22 1.0501L0.78 5.3501C0.3 5.6301 0 6.1501 0 6.7101V15.2901C0 15.8501 0.3 16.3701 0.78 16.6501L2.73 17.7701C3.68 18.2301 4 18.2401 4.44 18.2401C5.84 18.2401 6.65 17.3901 6.65 15.9101V7.4401C6.65 7.3201 6.55 7.2201 6.43 7.2201H5.5C5.37 7.2201 5.27 7.3201 5.27 7.4401V15.9101C5.27 16.5701 4.59 17.2201 3.5 16.6701L1.45 15.5001C1.41633 15.4763 1.3888 15.4449 1.36967 15.4084C1.35055 15.3719 1.34038 15.3313 1.34 15.2901V6.7101C1.34 6.6201 1.38 6.5401 1.45 6.5001L8.89 2.2101C8.95 2.1701 9.05 2.1701 9.11 2.2101L16.55 6.5001C16.62 6.5401 16.66 6.6201 16.66 6.7101V15.2901C16.66 15.3701 16.62 15.4501 16.55 15.5001L9.11 19.7901C9.05 19.8301 8.95 19.8301 8.88 19.7901L7 18.6501C6.92 18.6201 6.84 18.6101 6.79 18.6401C6.26 18.9401 6.16 19.0001 5.67 19.1501C5.55 19.1901 5.36 19.2601 5.74 19.4701L8.22 20.9401C8.46 21.0801 8.72 21.1501 9 21.1501C9.28 21.1501 9.54 21.0801 9.78 20.9401L17.22 16.6501C17.7 16.3701 18 15.8501 18 15.2901V6.7101C18 6.1501 17.7 5.6301 17.22 5.3501L9.78 1.0501C9.55 0.920098 9.28 0.850098 9 0.850098ZM11 7.0001C8.88 7.0001 7.61 7.8901 7.61 9.3901C7.61 11.0001 8.87 11.4701 10.91 11.6701C13.34 11.9101 13.53 12.2701 13.53 12.7501C13.53 13.5801 12.86 13.9301 11.3 13.9301C9.32 13.9301 8.9 13.4401 8.75 12.4601C8.73947 12.4094 8.71188 12.3639 8.67184 12.3312C8.6318 12.2984 8.58173 12.2804 8.53 12.2801H7.57C7.45 12.2801 7.36 12.3701 7.36 12.5001C7.36 13.7401 8.04 15.2401 11.3 15.2401C13.65 15.2401 15 14.3101 15 12.6901C15 11.0801 13.92 10.6601 11.63 10.3501C9.32 10.0501 9.09 9.8901 9.09 9.3501C9.09 8.9001 9.29 8.3001 11 8.3001C12.5 8.3001 13.09 8.6301 13.32 9.6601C13.34 9.7601 13.43 9.8301 13.53 9.8301H14.5C14.55 9.8301 14.61 9.8101 14.65 9.7601C14.69 9.7201 14.72 9.6601 14.7 9.6001C14.56 7.8201 13.38 7.0001 11 7.0001Z" fill="#086A1F"/>
</svg>
