<svg width="22" height="20" viewBox="0 0 22 20" fill="none" xmlns="http://www.w3.org/2000/svg">
<path d="M11 8.10985C12.03 8.10985 12.87 8.94985 12.87 9.99985C12.87 10.9998 12.03 11.8498 11 11.8498C9.97 11.8498 9.13 10.9998 9.13 9.99985C9.13 8.94985 9.97 8.10985 11 8.10985ZM6.37 17.9998C7 18.3798 8.38 17.7998 9.97 16.2998C9.45 15.7098 8.94 15.0698 8.46 14.3998C7.65415 14.3227 6.85301 14.2026 6.06 14.0398C5.55 16.1798 5.74 17.6498 6.37 17.9998ZM7.08 12.2598L6.79 11.7498C6.68 12.0398 6.57 12.3298 6.5 12.6098C6.77 12.6698 7.07 12.7198 7.38 12.7698L7.08 12.2598ZM13.62 11.4998L14.43 9.99985L13.62 8.49985C13.32 7.96985 13 7.49985 12.71 7.02985C12.17 6.99985 11.6 6.99985 11 6.99985C10.4 6.99985 9.83 6.99985 9.29 7.02985C9 7.49985 8.68 7.96985 8.38 8.49985L7.57 9.99985L8.38 11.4998C8.68 12.0298 9 12.4998 9.29 12.9698C9.83 12.9998 10.4 12.9998 11 12.9998C11.6 12.9998 12.17 12.9998 12.71 12.9698C13 12.4998 13.32 12.0298 13.62 11.4998ZM11 4.77985C10.81 4.99985 10.61 5.22985 10.41 5.49985H11.59C11.39 5.22985 11.19 4.99985 11 4.77985ZM11 15.2198C11.19 14.9998 11.39 14.7698 11.59 14.4998H10.41C10.61 14.7698 10.81 14.9998 11 15.2198ZM15.62 1.99985C15 1.61985 13.62 2.19985 12.03 3.69985C12.55 4.28985 13.06 4.92985 13.54 5.59985C14.36 5.67985 15.17 5.79985 15.94 5.95985C16.45 3.81985 16.26 2.34985 15.62 1.99985ZM14.92 7.73985L15.21 8.24985C15.32 7.95985 15.43 7.66985 15.5 7.38985C15.23 7.32985 14.93 7.27985 14.62 7.22985L14.92 7.73985ZM16.37 0.689845C17.84 1.52985 18 3.73985 17.38 6.31985C19.92 7.06985 21.75 8.30985 21.75 9.99985C21.75 11.6898 19.92 12.9298 17.38 13.6798C18 16.2598 17.84 18.4698 16.37 19.3098C14.91 20.1498 12.92 19.1898 11 17.3598C9.08 19.1898 7.09 20.1498 5.62 19.3098C4.16 18.4698 4 16.2598 4.62 13.6798C2.08 12.9298 0.25 11.6898 0.25 9.99985C0.25 8.30985 2.08 7.06985 4.62 6.31985C4 3.73985 4.16 1.52985 5.62 0.689845C7.09 -0.150155 9.08 0.809845 11 2.63985C12.92 0.809845 14.91 -0.150155 16.37 0.689845ZM16.08 9.99985C16.42 10.7498 16.72 11.4998 16.97 12.2598C19.07 11.6298 20.25 10.7298 20.25 9.99985C20.25 9.26985 19.07 8.36985 16.97 7.73985C16.72 8.49985 16.42 9.24985 16.08 9.99985ZM5.92 9.99985C5.58 9.24985 5.28 8.49985 5.03 7.73985C2.93 8.36985 1.75 9.26985 1.75 9.99985C1.75 10.7298 2.93 11.6298 5.03 12.2598C5.28 11.4998 5.58 10.7498 5.92 9.99985ZM14.92 12.2598L14.62 12.7698C14.93 12.7198 15.23 12.6698 15.5 12.6098C15.43 12.3298 15.32 12.0398 15.21 11.7498L14.92 12.2598ZM12.03 16.2998C13.62 17.7998 15 18.3798 15.62 17.9998C16.26 17.6498 16.45 16.1798 15.94 14.0398C15.17 14.1998 14.36 14.3198 13.54 14.3998C13.06 15.0698 12.55 15.7098 12.03 16.2998ZM7.08 7.73985L7.38 7.22985C7.07 7.27985 6.77 7.32985 6.5 7.38985C6.57 7.66985 6.68 7.95985 6.79 8.24985L7.08 7.73985ZM9.97 3.69985C8.38 2.19985 7 1.61985 6.37 1.99985C5.74 2.34985 5.55 3.81985 6.06 5.95985C6.85301 5.79714 7.65415 5.67697 8.46 5.59985C8.94 4.92985 9.45 4.28985 9.97 3.69985Z" fill="#61D3F2"/>
</svg>
